<?xml version="1.0" standalone="no"?>
<!DOCTYPE svg PUBLIC "-//W3C//DTD SVG 20010904//EN"
 "http://www.w3.org/TR/2001/REC-SVG-20010904/DTD/svg10.dtd">
<svg version="1.0" xmlns="http://www.w3.org/2000/svg"
 width="3216.000000pt" height="3216.000000pt" viewBox="0 0 3216.000000 3216.000000"
 preserveAspectRatio="xMidYMid meet">
<metadata>
Created by potrace 1.14, written by Peter Selinger 2001-2017
</metadata>
<g transform="translate(0.000000,3216.000000) scale(0.100000,-0.100000)"
fill="#000000" stroke="none">
<path d="M9200 25500 c-555 -46 -1060 -189 -1555 -439 -386 -196 -685 -410
-970 -696 -406 -405 -664 -858 -779 -1365 -3 -15 -13 -26 -23 -27 -86 -8 -520
-121 -948 -248 -198 -59 -367 -108 -375 -110 -26 -7 -744 -233 -772 -244 -36
-14 -39 -51 -5 -51 110 0 869 -77 1032 -105 50 -9 106 -18 125 -21 75 -10 291
-57 415 -90 72 -19 138 -36 149 -39 41 -10 134 -37 193 -56 l62 -20 30 -77
c94 -246 225 -719 265 -957 2 -16 14 -77 25 -135 56 -284 149 -1042 185 -1520
3 -36 10 -110 16 -165 5 -55 12 -127 15 -160 28 -361 113 -1016 170 -1325 197
-1054 584 -2009 1166 -2875 270 -403 525 -712 884 -1071 430 -431 864 -771
1380 -1081 509 -306 1134 -573 1585 -677 729 -168 1470 -205 2285 -116 187 21
444 59 603 89 91 18 107 16 77 -9 -9 -7 -156 -223 -327 -479 -642 -961 -1017
-1496 -1565 -2233 -257 -345 -348 -479 -406 -594 -30 -59 -51 -84 -139 -160
-168 -147 -201 -169 -295 -204 -78 -28 -357 -101 -438 -114 -55 -8 -219 -54
-310 -87 -231 -81 -471 -238 -547 -358 -29 -46 -36 -81 -17 -81 14 0 55 29
164 115 50 40 111 86 137 104 75 50 236 127 338 161 83 28 511 132 518 126 11
-11 -349 -205 -715 -387 -243 -121 -481 -246 -530 -278 -204 -135 -326 -277
-360 -421 -14 -57 -14 -72 -4 -83 14 -14 7 -22 104 118 34 49 98 126 142 171
124 125 222 186 578 354 380 181 700 360 923 516 58 41 108 74 111 74 2 0 -60
-73 -139 -162 -179 -205 -444 -470 -613 -616 -123 -107 -255 -251 -255 -279 0
-32 90 2 200 77 135 92 484 431 693 672 133 154 301 371 381 492 l57 84 59 -5
c130 -12 262 35 543 195 106 60 224 122 262 138 71 29 110 32 280 21 38 -2 40
-1 40 27 0 72 -162 94 -320 43 -50 -16 -154 -69 -275 -138 -107 -61 -220 -124
-250 -139 -52 -26 -267 -100 -291 -100 -7 0 10 19 37 42 137 117 287 295 551
653 469 635 918 1311 1338 2010 195 326 392 676 407 727 10 36 13 37 87 53
127 28 425 103 537 135 59 17 108 29 111 26 3 -3 -9 -47 -27 -98 -17 -51 -89
-264 -160 -473 -414 -1227 -699 -1968 -1140 -2960 -94 -210 -140 -335 -140
-376 0 -11 -7 -19 -17 -20 -64 -3 -407 -123 -843 -296 -91 -36 -302 -117 -470
-180 -350 -131 -476 -194 -445 -224 13 -13 176 15 277 47 62 20 309 115 548
211 521 210 877 346 859 328 -22 -21 -411 -245 -569 -328 -182 -95 -350 -172
-555 -252 -149 -58 -437 -157 -495 -169 -43 -9 -234 -63 -264 -75 -49 -19 -86
-51 -106 -91 -25 -49 -25 -95 -1 -140 21 -41 55 -48 57 -13 2 36 51 101 92
122 21 11 96 36 167 56 655 184 1205 453 1653 807 63 50 116 87 119 84 6 -6
-71 -93 -349 -392 -285 -308 -556 -542 -938 -809 -214 -149 -270 -195 -270
-216 0 -24 7 -24 85 6 97 36 188 93 384 239 266 200 405 319 632 546 221 220
332 348 436 501 l65 96 111 6 c188 8 305 57 637 262 301 187 455 246 635 247
118 0 177 -13 203 -47 28 -35 42 -31 42 13 0 54 -32 99 -88 125 -69 32 -262
31 -378 -2 -124 -35 -302 -126 -531 -272 -236 -151 -396 -238 -497 -268 -37
-12 -72 -21 -78 -21 -5 0 11 26 35 58 65 82 101 153 232 457 64 149 125 288
135 310 48 108 271 674 370 940 315 842 507 1444 687 2159 l38 148 180 62
c886 306 1661 683 2359 1148 425 284 947 695 1231 969 l110 107 648 -109 c356
-59 684 -116 729 -124 46 -9 99 -19 118 -22 19 -3 94 -16 165 -30 72 -13 144
-27 160 -29 17 -3 53 -9 80 -15 28 -6 64 -13 80 -15 17 -3 174 -34 350 -69
352 -71 491 -113 920 -278 221 -85 809 -325 1116 -456 139 -59 227 -90 262
-91 26 -1 -13 49 -167 216 -485 526 -1009 993 -1452 1292 -60 40 -64 45 -149
209 -168 322 -428 781 -678 1198 -37 60 -65 111 -62 113 2 2 79 -21 172 -51
92 -31 220 -72 283 -91 110 -34 797 -228 871 -247 20 -4 148 -40 285 -79 137
-39 258 -73 269 -76 11 -2 126 -33 255 -69 129 -36 285 -79 345 -95 61 -16
290 -79 510 -140 220 -61 409 -113 420 -115 71 -16 1314 -362 1820 -506 1282
-367 1626 -480 1939 -639 76 -39 142 -68 147 -65 16 11 10 42 -36 171 -115
326 -301 650 -472 820 l-56 57 74 -7 c121 -11 458 -23 544 -20 125 5 221 17
361 48 47 10 172 69 224 105 59 40 147 141 157 178 3 13 3 29 0 36 -3 9 -77
24 -218 46 -515 79 -1103 184 -1741 312 -139 27 -266 52 -283 55 -187 33
-1341 283 -1725 374 -118 28 -226 54 -240 56 -20 4 -704 173 -760 188 -8 2
-71 18 -140 36 -329 83 -1099 298 -1365 380 -55 17 -108 33 -118 35 -97 22
-1065 337 -1352 439 -71 26 -175 63 -230 83 -209 74 -582 215 -805 304 l-232
92 -136 181 c-999 1330 -2168 2566 -3396 3593 -888 743 -1803 1381 -2636 1839
-234 128 -234 129 -585 365 -864 582 -1742 1066 -2405 1324 -442 172 -930 297
-1290 330 -99 9 -539 13 -630 5z"/>
</g>
</svg>
