<svg width="508" height="511" viewBox="0 0 508 511" fill="none" xmlns="http://www.w3.org/2000/svg">
<path d="M296.94 510.38C311.49 474.74 310.06 424.83 286.68 414.85C263.3 404.87 302.36 462.21 355.4 471.85C412.83 482.33 332.95 495.85 317.19 451.31C303.08 411.46 356.83 419.66 374.51 427.31C392.19 434.96 310.06 432.44 279.26 397.37C248.46 362.3 252.45 340.37 218.26 319.23C184.07 298.09 227.39 384.53 328.06 363.43C418.55 344.43 410.19 279.52 396.71 269.43C383.23 259.34 388.13 304 430.47 276C472.81 248 503.41 161.36 377.65 66.9999C251.89 -27.3601 187.15 38.1999 176.03 71.8499C164.91 105.5 160.84 109.94 104.03 112.77C23.76 116.77 -1.73997 116.02 1.51003 85.5399C5.65003 46.7499 138.68 108.92 150.94 99.5399C163.2 90.1599 75.94 37.9399 78.79 8.84994C81.64 -20.2401 158.93 47.0699 161.49 74.4399C164.05 101.81 95.32 8.47993 48 25.5899C7.50003 40.2299 64.11 63.9399 100.75 79.1999C130.41 91.5499 141.53 124.33 142.96 155.63C144.96 199.63 172.55 272.14 228.23 308.2C290.54 348.55 239.06 386.05 201.13 341.85C163.2 297.65 220.81 241.75 272.43 212.09C324.05 182.43 367.43 158.48 354.84 90.8899C342.25 23.2999 245 14.4699 208.25 50.1099C171.5 85.7499 215.09 120.79 253.03 112.57C312.2 99.7299 232.42 54.5699 241.62 127.97C248.98 186.71 308.92 184.15 334.62 151.92C360.32 119.69 319.07 85.6199 172.92 142.23C160.78 146.93 175.92 112.96 190.32 101.45C208.5 86.8999 228.87 106.23 219.98 129.68C212.39 149.68 187.18 149.05 179.98 147.91C172.78 146.77 190.19 127.85 205.13 157.05C221.13 188.28 273.57 235.48 345.13 183.58C416.69 131.68 380.84 47.1199 357.53 30.4399C334.22 13.7599 348.76 83.0499 398.6 92.0299C448.44 101.01 450.14 80.4799 450.78 107.43C451.42 134.38 471.12 146.34 498.91 147.86C523.65 149.21 483.58 177.02 466.18 134.6C450.29 95.8299 490.57 106.79 496.77 117.27C502.97 127.75 466.18 130.11 470.67 83.4799" stroke="#7899BF" opacity="0.3" stroke-width="1" stroke-miterlimit="10"/>
</svg>
